<?xml version="1.0" encoding="utf-8"?>
<?xml-stylesheet type="text/xsl" href="rss1.xsl"?>
<rss version="2.0" xmlns:atom="http://www.w3.org/2005/Atom" xmlns:content="http://purl.org/rss/1.0/modules/content/" xmlns:dc="http://purl.org/dc/elements/1.1/" xmlns:media="http://search.yahoo.com/mrss/">
<channel>
 <title>Getty</title>
 <link>http://www.gettyimg.com/</link>
 <atom:link href="http://www.gettyimg.com/" rel="self" type="application/rss+xml" />

 
                <item>
                <title><![CDATA[【Cinema Center】MOVIE - Chungking.Express.1994.1080p.MUBI.WEB-DL.AAC2.0.x264-Samuel]]></title>
                <link><![CDATA[https://sharemania.us/threads/chungking-express-1994-1080p-mubi-web-dl-aac2-0-x264-samuel.233892/]]></link>
                <description><![CDATA[<article>
<blockquote class="messageText SelectQuoteContainer ugc baseHtml">
<div style="text-align: center"><b><span style="font-size: 26px">Chungking Express</span></b><br>
<b><span style="font-size: 18px">CHUNG HING SAM IAM | 重慶森林</span></b><br>
<img src="https://i.imgur.com/b9C4kCB.jpg" class="bbCodeImage LbImage" alt="[​IMG]" data-url="https://i.imgur.com/b9C4kCB.jpg" style=""><br>
<b><a href="https://i.imgur.com/jxO9hOi.jpg" target="_blank" class="externalLink" rel="nofollow">Thumbnail 1</a></b> | <b><a href="https://i.imgur.com/hmBjJ6U.png" target="_blank" class="externalLink" rel="nofollow">Thumbnail 2</a></b> | <b><a href="https://i.imgur.com/fX0inAO.jpg" target="_blank" class="externalLink" rel="nofollow">Thumbnail 3</a></b> | <b><a href="https://i.imgur.com/abbarUO.jpg" target="_blank" class="externalLink" rel="nofollow">Poster</a></b><br>
<br>
<b>Directed by</b> Wong Kar Wai<br>
Hong Kong, 1994<br>
Drama, Romance<br>
<img src="https://i.imgur.com/EItKTKp.png" class="bbCodeImage LbImage" alt="[​IMG]" data-url="https://i.imgur.com/EItKTKp.png" style=""> • <img src="https://i.imgur.com/Nr6hDmT.png" class="bbCodeImage LbImage" alt="[​IMG]" data-url="https://i.imgur.com/Nr6hDmT.png" style=""> 103 • <img src="https://i.imgur.com/JUKd06z.png" class="bbCodeImage LbImage" alt="[​IMG]" data-url="https://i.imgur.com/JUKd06z.png" style=""> Cantonese • <img src="https://i.imgur.com/vB9GQzj.png" class="bbCodeImage LbImage" alt="[​IMG]" data-url="https://i.imgur.com/vB9GQzj.png" style=""> Spanish &amp; 11 more • MATURE<br>
<br>
<div class="bbCodeBlock bbCodeQuote">
<aside>
<blockquote class="quoteContainer"><div class="quote"><b><span style="font-size: 15px"><span style="font-family: 'Arial'">Rating</span></span></b><br>
8.9/10<br>
50,966 Rating</div><div class="quoteExpand">Click to expand...</div></blockquote>
</aside>
</div>
<div class="bbCodeBlock bbCodeQuote">
<aside>
<blockquote class="quoteContainer"><div class="quote"><b><span style="font-size: 15px"><span style="font-family: 'Arial'">Trailers</span></span></b><br>
<span data-s9e-mediaembed="googledrive" style="display:inline-block;width:100%;max-width:640px"><span style="display:block;overflow:hidden;position:relative;padding-bottom:75%"><iframe allowfullscreen="" loading="lazy" scrolling="no" src="//drive.google.com/file/d/1xeV7wb0iFoVfpPQ6LWI6b5nyrhFREXvg/preview" style="border:0;height:100%;left:0;position:absolute;width:100%"></iframe></span></span></div><div class="quoteExpand quoteCut">Click to expand...</div></blockquote>
</aside>
</div>
<div class="bbCodeBlock bbCodeQuote">
<aside>
<blockquote class="quoteContainer"><div class="quote"><b><span style="font-size: 15px"><span style="font-family: 'Arial'">Synopsis</span></span></b><br>
In Hong Kong, two lovelorn and lonely police officers cross paths with two mysterious women. Cop 223 falls for a mysterious woman in a blonde wig, not knowing she is a big-time heroin smuggler—and when Cop 663’s Ex visits a late-night diner, the new server becomes secretly infatuated with him.</div><div class="quoteExpand">Click to expand...</div></blockquote>
</aside>
</div>
<div class="bbCodeBlock bbCodeQuote">
<aside>
<blockquote class="quoteContainer"><div class="quote"><b><span style="font-size: 15px"><span style="font-family: 'Arial'">Our Take</span></span></b><br>
Shot in just 23 days while making Ashes of Time, Wong Kar Wai’s international breakthrough remains among the most beloved of his pictures. From Brigitte Lin, iconic in bleached wig and shades to Faye Wong’s California dreams, it blushes with reasons to fall for its hurtling, newly restored charms.</div><div class="quoteExpand">Click to expand...</div></blockquote>
</aside>
</div>
<div class="bbCodeBlock bbCodeQuote">
<aside>
<blockquote class="quoteContainer"><div class="quote"><b><span style="font-size: 15px"><span style="font-family: 'Arial'">Source</span></span></b><br>
<img src="https://i.imgur.com/RTffQXC.png" class="bbCodeImage LbImage" alt="[​IMG]" data-url="https://i.imgur.com/RTffQXC.png" style=""></div><div class="quoteExpand">Click to expand...</div></blockquote>
</aside>
</div>
<div class="bbCodeBlock bbCodeQuote">
<aside>
<blockquote class="quoteContainer"><div class="quote"><b><span style="font-size: 15px">Release Name</span></b><br>
Chungking.Express.1994.1080p.MUBI.WEB-DL.AAC2.0.x264-Samuel</div><div class="quoteExpand">Click to expand...</div></blockquote>
</aside>
</div>
<div class="ToggleTriggerAnchor bbCodeSpoilerContainer">
<button type="button" class="button bbCodeSpoilerButton ToggleTrigger Tooltip JsOnly" data-target="> .SpoilerTarget"><span>Spoiler: <span class="SpoilerTitle">Media Information</span></span></button>
<div class="SpoilerTarget bbCodeSpoilerText">General<br>
Complete name : Chungking.Express.1994.1080p.MUBI.WEB-DL.AAC2.0.x264-Samuel.mkv<br>
Format : Matroska<br>
Format version : Version 4<br>
File size : 4.26 GiB<br>
Duration : 1 h 42 min<br>
Overall bit rate : 5 942 kb/s<br>
Frame rate : 24.000 FPS<br>
Encoded date : 2023-12-13 12:26:16 UTC<br>
Writing application : mkvmerge v81.0 ('Milliontown') 64-bit<br>
Writing library : libebml v1.4.4 + libmatroska v1.7.1<br>
<br>
Video<br>
ID : 1<br>
Format : AVC<br>
Format/Info : Advanced Video Codec<br>
Format profile : High@L4<br>
Format settings : CABAC / 4 Ref Frames<br>
Format settings, CABAC : Yes<br>
Format settings, Reference frames : 4 frames<br>
Codec ID : V_MPEG4/ISO/AVC<br>
Duration : 1 h 42 min<br>
Bit rate : 5 872 kb/s<br>
Width : 1 800 pixels<br>
Height : 1 080 pixels<br>
Display aspect ratio : 5:3<br>
Frame rate mode : Constant<br>
Frame rate : 24.000 FPS<br>
Color space : YUV<br>
Chroma subsampling : 4:2:0<br>
Bit depth : 8 bits<br>
Scan type : Progressive<br>
Bits/(Pixel*Frame) : 0.126<br>
Stream size : 4.17 GiB (98%)<br>
Writing library : x264 core 155 r2917 0a84d98<br>
Encoding settings : cabac=1 / ref=3 / deblock=1:-1:-1 / analyse=0x3:0x113 / me=hex / subme=8 / psy=1 / psy_rd=1.00:0.15 / mixed_ref=1 / me_range=16 / chroma_me=1 / trellis=2 / 8x8dct=1 / cqm=0 / deadzone=21,11 / fast_pskip=1 / chroma_qp_offset=-3 / threads=24 / lookahead_threads=4 / sliced_threads=0 / nr=0 / decimate=1 / interlaced=0 / bluray_compat=0 / constrained_intra=0 / bframes=5 / b_pyramid=2 / b_adapt=1 / b_bias=0 / direct=3 / weightb=1 / open_gop=0 / weightp=2 / keyint=48 / keyint_min=25 / scenecut=0 / intra_refresh=0 / rc_lookahead=50 / rc=abr / mbtree=1 / bitrate=5872 / ratetol=1.0 / qcomp=0.60 / qpmin=0 / qpmax=69 / qpstep=4 / vbv_maxrate=9000 / vbv_bufsize=27000 / nal_hrd=none / filler=0 / ip_ratio=1.40 / aq=1:1.00<br>
Default : Yes<br>
Forced : No<br>
<br>
Audio<br>
ID : 2<br>
Format : AAC LC<br>
Format/Info : Advanced Audio Codec Low Complexity<br>
Codec ID : A_AAC-2<br>
Duration : 1 h 42 min<br>
Bit rate : 128 kb/s<br>
Channel(s) : 2 channels<br>
Channel layout : L R<br>
Sampling rate : 48.0 kHz<br>
Frame rate : 46.875 FPS (1024 SPF)<br>
Compression mode : Lossy<br>
Delay relative to video : -21 ms<br>
Stream size : 94.0 MiB (2%)<br>
Language : Cantonese<br>
Default : Yes<br>
Forced : No<br>
<br>
Text #1<br>
ID : 3<br>
Format : UTF-8<br>
Codec ID : S_TEXT/UTF8<br>
Codec ID/Info : UTF-8 Plain Text<br>
Duration : 1 h 38 min<br>
Bit rate : 31 b/s<br>
Frame rate : 0.089 FPS<br>
Count of elements : 531<br>
Stream size : 22.6 KiB (0%)<br>
Language : Danish<br>
Default : No<br>
Forced : No<br>
<br>
Text #2<br>
ID : 4<br>
Format : UTF-8<br>
Codec ID : S_TEXT/UTF8<br>
Codec ID/Info : UTF-8 Plain Text<br>
Duration : 1 h 38 min<br>
Bit rate : 43 b/s<br>
Frame rate : 0.130 FPS<br>
Count of elements : 772<br>
Stream size : 31.2 KiB (0%)<br>
Language : German<br>
Default : No<br>
Forced : No<br>
<br>
Text #3<br>
ID : 5<br>
Format : UTF-8<br>
Codec ID : S_TEXT/UTF8<br>
Codec ID/Info : UTF-8 Plain Text<br>
Duration : 1 h 39 min<br>
Bit rate : 31 b/s<br>
Frame rate : 0.148 FPS<br>
Count of elements : 882<br>
Stream size : 23.2 KiB (0%)<br>
Language : English<br>
Default : No<br>
Forced : No<br>
<br>
Text #4<br>
ID : 6<br>
Format : UTF-8<br>
Codec ID : S_TEXT/UTF8<br>
Codec ID/Info : UTF-8 Plain Text<br>
Duration : 1 h 39 min<br>
Bit rate : 36 b/s<br>
Frame rate : 0.147 FPS<br>
Count of elements : 878<br>
Stream size : 26.5 KiB (0%)<br>
Language : Spanish<br>
Default : No<br>
Forced : No<br>
<br>
Text #5<br>
ID : 7<br>
Format : UTF-8<br>
Codec ID : S_TEXT/UTF8<br>
Codec ID/Info : UTF-8 Plain Text<br>
Duration : 1 h 38 min<br>
Bit rate : 32 b/s<br>
Frame rate : 0.092 FPS<br>
Count of elements : 547<br>
Stream size : 23.8 KiB (0%)<br>
Language : Finnish<br>
Default : No<br>
Forced : No<br>
<br>
Text #6<br>
ID : 8<br>
Format : UTF-8<br>
Codec ID : S_TEXT/UTF8<br>
Codec ID/Info : UTF-8 Plain Text<br>
Duration : 1 h 40 min<br>
Bit rate : 28 b/s<br>
Frame rate : 0.136 FPS<br>
Count of elements : 826<br>
Stream size : 20.9 KiB (0%)<br>
Language : French<br>
Default : No<br>
Forced : No<br>
<br>
Text #7<br>
ID : 9<br>
Format : UTF-8<br>
Codec ID : S_TEXT/UTF8<br>
Codec ID/Info : UTF-8 Plain Text<br>
Duration : 1 h 39 min<br>
Bit rate : 36 b/s<br>
Frame rate : 0.120 FPS<br>
Count of elements : 718<br>
Stream size : 26.4 KiB (0%)<br>
Language : Italian<br>
Default : No<br>
Forced : No<br>
<br>
Text #8<br>
ID : 10<br>
Format : UTF-8<br>
Codec ID : S_TEXT/UTF8<br>
Codec ID/Info : UTF-8 Plain Text<br>
Duration : 1 h 39 min<br>
Bit rate : 30 b/s<br>
Frame rate : 0.089 FPS<br>
Count of elements : 531<br>
Stream size : 22.5 KiB (0%)<br>
Language : Norwegian Bokmal<br>
Default : No<br>
Forced : No<br>
<br>
Text #9<br>
ID : 11<br>
Format : UTF-8<br>
Codec ID : S_TEXT/UTF8<br>
Codec ID/Info : UTF-8 Plain Text<br>
Duration : 1 h 39 min<br>
Bit rate : 34 b/s<br>
Frame rate : 0.098 FPS<br>
Count of elements : 584<br>
Stream size : 24.9 KiB (0%)<br>
Language : Dutch<br>
Default : No<br>
Forced : No<br>
<br>
Text #10<br>
ID : 12<br>
Format : UTF-8<br>
Codec ID : S_TEXT/UTF8<br>
Codec ID/Info : UTF-8 Plain Text<br>
Duration : 1 h 42 min<br>
Bit rate : 33 b/s<br>
Frame rate : 0.142 FPS<br>
Count of elements : 872<br>
Stream size : 24.8 KiB (0%)<br>
Language : Portuguese<br>
Default : No<br>
Forced : No<br>
<br>
Text #11<br>
ID : 13<br>
Format : UTF-8<br>
Codec ID : S_TEXT/UTF8<br>
Codec ID/Info : UTF-8 Plain Text<br>
Duration : 1 h 38 min<br>
Bit rate : 32 b/s<br>
Frame rate : 0.089 FPS<br>
Count of elements : 531<br>
Stream size : 23.4 KiB (0%)<br>
Language : Swedish<br>
Default : No<br>
Forced : No<br>
<br>
Text #12<br>
ID : 14<br>
Format : UTF-8<br>
Codec ID : S_TEXT/UTF8<br>
Codec ID/Info : UTF-8 Plain Text<br>
Duration : 1 h 38 min<br>
Bit rate : 35 b/s<br>
Frame rate : 0.141 FPS<br>
Count of elements : 834<br>
Stream size : 25.7 KiB (0%)<br>
Language : Turkish<br>
Default : No<br>
Forced : No</div>
</div><br>
<b>Screenshots</b><br>
<img src="https://i.imgur.com/yDe4D0R.png" class="bbCodeImage LbImage" alt="[​IMG]" data-url="https://i.imgur.com/yDe4D0R.png" style=""><br>
<br>
<b>Download</b><br>
<div class="bbCodeBlock bbCodeVfcHH HiddenContent">
<div class="attribution type">Hidden Content:</div>
<blockquote>You must reply before you can see the hidden data contained here.</blockquote>
</div></div>
<div class="messageTextEndMarker">&nbsp;</div>
</blockquote>
</article>]]></description>
                <author><![CDATA[Samuel]]></author>
                </item>

                </channel></rss>